<svg xmlns="http://www.w3.org/2000/svg" width="27" height="24" fill="none" viewBox="0 0 27 24">
    <path fill="#FFA800" d="M12.17.774a1.528 1.528 0 0 1 2.66 0l11.962 20.903c.59 1.033-.148 2.323-1.33 2.323H1.538c-1.181 0-1.92-1.29-1.33-2.323L12.172.774z"/>
    <path fill="#fff" d="M13.444 16.523h-.871L12.149 8h1.718l-.423 8.523zM12 18.913c0-.73.332-1.094.996-1.094.32 0 .567.094.738.282.178.187.266.458.266.813 0 .343-.088.611-.266.804-.177.188-.423.282-.738.282-.288 0-.526-.083-.714-.25-.188-.171-.282-.45-.282-.837z"/>
</svg>
