<svg xmlns="http://www.w3.org/2000/svg" width="16" height="16" fill="none" viewBox="0 0 16 16">
    <g clip-path="url(#a)">
        <path fill="#8E99A7" d="M9.275 12.004c.863.295 1.625.484 2.72.82-.42 5.315-5.447 3.204-2.72-.82zm4.487-4.883c-.056-1.596-.338-3.69-2.577-3.361-1.05.273-1.825 1.426-2.19 3.415-.2 1.094-.083 2.628.153 3.549.216.648.142.608.374.731.898.203 1.786.426 2.691.655.92-.65 1.674-4.096 1.55-4.99zm-6.91-.123c.236-.92.353-2.455.153-3.548C6.64 1.46 5.865.308 4.815.034 2.575-.294 2.295 1.8 2.238 3.396c-.125.893.63 4.34 1.549 4.988a108.86 108.86 0 0 1 2.691-.654c.232-.123.158-.083.374-.732zm-2.847 2.1c.42 5.316 5.447 3.205 2.72-.82-.863.296-1.625.484-2.72.82z"/>
    </g>
    <defs>
        <clipPath id="a">
            <path fill="#fff" d="M0 0h16v16H0z"/>
        </clipPath>
    </defs>
</svg>
