<svg xmlns="http://www.w3.org/2000/svg" width="72" height="72" fill="none" viewBox="0 0 72 72">
    <circle cx="36" cy="36" r="36" fill="#1B559E"/>
    <path fill="#fff" d="M36 49.71a13.714 13.714 0 1 1 0-27.428 13.714 13.714 0 0 1 0 27.429zm0-30.856c-9.47 0-17.143 7.675-17.143 17.143S26.53 53.139 36 53.139c9.466 0 17.143-7.674 17.143-17.142S45.466 18.854 36 18.854zm0 18a2.572 2.572 0 1 1 0-5.144 2.572 2.572 0 0 1 0 5.144zm0-9.086a6.515 6.515 0 0 0-6.514 6.514c0 5.143 6.514 11.143 6.514 11.143s6.514-6 6.514-11.143A6.514 6.514 0 0 0 36 27.768z"/>
</svg>
