<svg xmlns="http://www.w3.org/2000/svg" width="72" height="72" fill="none" viewBox="0 0 72 72">
    <circle cx="36" cy="36" r="36" fill="#1B559E"/>
    <path fill="#fff" d="M22.286 18.854a3.414 3.414 0 0 0-3.412 3.428l-.017 20.575a3.429 3.429 0 0 0 3.429 3.429h6.857v5.143a1.714 1.714 0 0 0 1.714 1.714h.857l.004-.004a1.705 1.705 0 0 0 1.191-.502l6.355-6.351 10.45-.004a3.43 3.43 0 0 0 3.429-3.428V22.282a3.429 3.429 0 0 0-3.429-3.428H22.286zm0 3.432h27.428v20.571h-11.87l-5.273 5.273v-5.273H22.286V22.286zm14.031 2.568c-1.512 0-2.734.312-3.662.934-.92.617-1.417 1.613-1.337 2.829h3.372c.014-.48.177-.84.484-1.084.305-.243.687-.365 1.143-.365.566 0 1.003.15 1.31.446.308.295.46.692.46 1.191 0 .48-.135.905-.4 1.272-.257.367-.617.676-1.075.924-.885.54-1.493 1.015-1.828 1.43-.334.415-.505 1.037-.512 1.862h3.456c0-.492.074-.882.223-1.166.157-.291.456-.56.891-.81a5.211 5.211 0 0 0 1.932-1.467c.511-.622.767-1.303.767-2.045 0-1.21-.465-2.172-1.4-2.883-.925-.712-2.2-1.068-3.822-1.068h-.002zM34.286 36v3.429h3.428V36h-3.428z"/>
</svg>
