<svg xmlns="http://www.w3.org/2000/svg" width="72" height="72" fill="none" viewBox="0 0 72 72">
    <circle cx="36" cy="36" r="36" fill="#1B559E"/>
    <path fill="#fff" d="M51.6 36.854L54 39.27 42.806 50.568l-5.949-6 2.4-2.417 3.549 3.566 8.794-8.863zM34.286 22.286a6.86 6.86 0 0 1 6.857 6.857A6.86 6.86 0 0 1 34.286 36a6.86 6.86 0 0 1-6.857-6.857 6.86 6.86 0 0 1 6.857-6.857zm0 3.428a3.432 3.432 0 0 0-3.429 3.429 3.432 3.432 0 0 0 3.429 3.428 3.432 3.432 0 0 0 3.428-3.428 3.432 3.432 0 0 0-3.428-3.429zm0 12c1.16 0 2.614.148 4.138.443l-2.865 2.862-1.273-.048c-5.099 0-10.457 2.498-10.457 3.6v1.886h10.628l3.257 3.257H20.571v-5.143c0-4.568 9.143-6.857 13.715-6.857z"/>
</svg>
