<svg xmlns="http://www.w3.org/2000/svg" width="62" height="56" fill="none" viewBox="0 0 62 56">
    <path fill="#F15A22" d="M51 26.492C51 37.268 42.044 46 30.992 46 19.956 46 11 37.268 11 26.492 11 15.732 19.956 7 30.992 7 42.044 7 51 15.732 51 26.492zM26.52 50.118c.751.552 1.358 1.281 1.79 1.832.224.292.384.536.512.73.111.178.175.292.175.292s-.495.032-1.198-.065a5.314 5.314 0 0 1-1.183-.308 3.593 3.593 0 0 1-.623-.292 6.539 6.539 0 0 1-.624-.389c-.096-.065-.191-.146-.287-.227l-.256-.26c-.16-.178-.304-.356-.431-.518-.064-.097-.128-.179-.192-.276-.048-.08-.112-.178-.16-.26-.096-.178-.176-.356-.256-.518-.144-.308-.224-.6-.287-.795-.064-.194-.08-.308-.08-.308h.063c.064.017.128.033.224.049.176.032.416.097.72.21.143.066.303.098.463.18.176.064.351.145.527.226.176.097.352.195.544.308.192.114.367.243.56.39zm8.95 0c-.735.552-1.343 1.281-1.79 1.832-.208.292-.384.536-.495.73-.112.178-.176.292-.176.292s.48.032 1.198-.065a5.543 5.543 0 0 0 1.183-.308 3.59 3.59 0 0 0 .623-.292c.208-.113.416-.243.608-.389.111-.065.207-.146.287-.227.096-.081.176-.178.256-.26.176-.178.32-.356.447-.518.065-.097.128-.179.176-.276.064-.08.112-.178.16-.26.096-.178.192-.356.256-.518.144-.308.24-.6.303-.795.048-.194.08-.308.08-.308h-.08a1.355 1.355 0 0 1-.207.049 3.977 3.977 0 0 0-.72.21c-.143.066-.303.098-.479.18-.16.064-.336.145-.511.226-.176.097-.368.195-.56.308a8.789 8.789 0 0 0-.559.39zM42.902.86c.24.13.463.292.67.454l.288.244c.096.08.176.178.256.259.336.357.592.697.783 1.005.208.325.336.6.416.811.096.195.128.308.128.308s-.112 0-.32-.049c-.112-.016-.24-.032-.383-.064-.144-.033-.304-.065-.48-.114a13 13 0 0 1-1.183-.357c-.207-.08-.431-.178-.655-.275-.064-.033-.112-.065-.176-.081a.742.742 0 0 0-.16-.081c-.111-.065-.24-.114-.351-.179-.224-.13-.432-.275-.64-.421a9.473 9.473 0 0 1-.59-.438c-.368-.292-.688-.6-.96-.876-.271-.26-.48-.502-.623-.665a45.48 45.48 0 0 0-.224-.275s.144-.016.384-.049c.112 0 .272-.016.431-.016.16 0 .352.016.56.016.191.016.415.049.655.081.112.017.224.033.336.065.127.016.255.049.367.081.496.146 1.007.324 1.47.616zm5.833 1.946c.288.486.48.99.607 1.46.112.453.176.907.192 1.28.016.373.016.665-.016.892-.016.21-.048.34-.048.34s-.016-.016-.064-.048c-.048-.033-.112-.097-.192-.162a5.79 5.79 0 0 1-.655-.584c-.527-.503-1.198-1.216-1.726-2.124-.144-.243-.272-.454-.383-.681a6.184 6.184 0 0 1-.288-.681 2.947 2.947 0 0 1-.128-.34c-.048-.098-.08-.211-.112-.309-.08-.21-.128-.405-.192-.583a10.865 10.865 0 0 1-.207-.908c-.032-.114-.032-.211-.048-.26C45.459.032 45.459 0 45.459 0s.032.016.096.032c.063.033.143.065.255.13.208.114.512.276.863.487.16.113.336.259.528.405.175.146.367.308.543.486.048.049.096.081.144.13.048.049.08.097.128.146.08.097.176.21.256.308.175.227.32.438.463.681zm-3.037 4.637c.464.033.927.017 1.359-.032a9.747 9.747 0 0 0 1.167-.195c.351-.065.639-.162.847-.21.191-.065.303-.114.303-.114s-.016-.016-.048-.065c-.048-.032-.112-.097-.191-.162-.16-.13-.4-.324-.704-.519-.607-.389-1.486-.778-2.477-.843-.24-.032-.48 0-.72.016-.239.016-.447.065-.67.114a2.104 2.104 0 0 0-.304.08l-.288.098c-.191.065-.351.146-.511.227a5.64 5.64 0 0 0-.735.405c-.08.065-.144.114-.192.146-.048.033-.064.05-.064.05s.096.048.256.145c.16.081.383.21.687.308.144.065.288.13.464.178.175.065.351.114.543.163.048.016.096.032.16.032l.144.049c.095.016.207.032.303.064.224.033.448.05.671.065zm7.816-.486c.08.276.16.535.191.794.048.26.064.52.08.762 0 .227 0 .47-.016.681 0 .211-.032.422-.064.6a7.113 7.113 0 0 1-.207.876c-.064.21-.112.324-.112.324s-.08-.097-.224-.26a7.704 7.704 0 0 1-.224-.307c-.096-.13-.176-.26-.287-.422-.096-.146-.208-.308-.32-.486-.048-.098-.112-.195-.16-.292-.032-.049-.048-.097-.08-.146-.032-.049-.048-.097-.08-.146-.112-.21-.224-.422-.32-.665-.047-.113-.095-.227-.143-.356a3.18 3.18 0 0 0-.128-.357c-.08-.26-.16-.503-.208-.762-.032-.13-.064-.243-.08-.373-.032-.114-.048-.243-.08-.357-.08-.47-.111-.908-.144-1.297-.016-.39-.016-.697-.016-.924 0-.227.016-.357.016-.357s.112.081.304.227c.192.146.448.373.735.681.144.146.288.308.432.486.16.195.288.406.431.617.144.21.272.437.4.68.112.26.208.52.304.779zm-3.964 3.843c.224.065.464.113.671.162.224.048.448.08.656.113l.639.049c.192 0 .383.016.56.016a7.057 7.057 0 0 0 1.182-.048s-.064-.114-.192-.276a3.325 3.325 0 0 0-.24-.308c-.096-.114-.191-.243-.32-.373-.143-.114-.287-.26-.447-.39-.064-.064-.16-.129-.24-.194-.047-.032-.08-.065-.127-.097l-.144-.097a7.24 7.24 0 0 0-.608-.325 2.965 2.965 0 0 0-.32-.162c-.111-.032-.239-.08-.35-.113a5.652 5.652 0 0 0-.72-.146c-.112-.016-.224-.033-.336-.033h-.335c-.432 0-.831.065-1.167.13-.336.081-.607.178-.799.243-.192.081-.304.13-.304.13s.08.081.224.195c.144.113.336.291.592.47.127.097.271.178.431.275.16.098.32.195.495.292.176.081.368.179.576.26.191.08.4.162.623.227zm7.735 1.28c.016.276.032.552.016.811a5.86 5.86 0 0 1-.08.762c-.095.47-.223.892-.351 1.233-.048.097-.08.178-.112.243a3.16 3.16 0 0 1-.096.227c-.08.13-.144.243-.192.34-.112.195-.176.292-.176.292s-.063-.113-.16-.308c-.08-.194-.223-.47-.351-.81-.064-.179-.128-.373-.192-.568a5.835 5.835 0 0 1-.208-.632c-.047-.227-.095-.47-.16-.714-.047-.243-.08-.502-.111-.778a3.19 3.19 0 0 1-.032-.39c0-.129-.016-.259-.016-.388 0-.26 0-.503.016-.746l.048-.697c.032-.211.048-.406.08-.6.064-.373.128-.698.192-.908.047-.227.08-.357.08-.357s.095.113.255.308c.08.081.16.21.256.34.096.146.208.292.32.47.191.374.43.795.607 1.282.08.243.16.502.224.762.063.26.127.535.143.827zm-4.682 2.854c.191.114.4.227.623.308.208.098.415.179.607.26.416.146.8.26 1.15.34.177.033.337.065.464.098.144.032.272.048.384.064.192.033.32.05.32.05s-.032-.114-.128-.325a5.65 5.65 0 0 0-.416-.778 26.453 26.453 0 0 0-.32-.47c-.143-.163-.287-.341-.43-.503a7.074 7.074 0 0 0-.512-.47 5.917 5.917 0 0 0-.624-.406 2.956 2.956 0 0 0-.32-.162c-.047-.032-.111-.049-.16-.081a.772.772 0 0 1-.175-.065 4.908 4.908 0 0 0-.655-.178c-.208-.049-.416-.081-.608-.114-.191-.016-.383-.016-.559-.016a5.42 5.42 0 0 0-.83.065c-.193.016-.32.048-.32.048s.063.098.175.244c.048.08.128.162.208.26l.272.323c.207.244.48.503.783.762.16.13.32.26.495.373.176.13.384.26.576.373zm7.255 3c-.016.13-.031.276-.063.405l-.096.39a4.65 4.65 0 0 1-.24.713c-.176.438-.4.827-.623 1.135-.208.308-.4.535-.544.697-.144.162-.24.243-.24.243s-.16-.486-.24-1.216a9.094 9.094 0 0 1-.127-1.265 6.952 6.952 0 0 1 .048-1.507 8.79 8.79 0 0 1 .288-1.492c.127-.454.271-.876.415-1.232.128-.357.272-.649.368-.86.096-.194.16-.308.16-.308s.08.114.191.34c.096.228.224.552.368.941.144.39.24.86.32 1.378l.047.39c.016.13.016.275.016.405 0 .276-.016.551-.048.843zm-5.178 1.719l.272.227c.08.08.176.146.272.21.176.146.351.276.543.39.368.227.72.437 1.039.583.32.162.591.292.783.373.208.065.32.114.32.114s-.064-.503-.288-1.2a6.49 6.49 0 0 0-.543-1.119 5.29 5.29 0 0 0-.895-1.102c-.384-.341-.783-.6-1.167-.779a5.876 5.876 0 0 0-1.135-.389 4.834 4.834 0 0 0-.815-.13c-.208-.016-.32-.016-.32-.016s.032.098.112.26c.08.178.192.421.352.697.16.26.335.584.591.908l.192.243c.08.081.144.162.208.243.144.162.303.325.48.487zm6.441 4.572c-.112.26-.208.503-.336.746-.127.227-.24.438-.383.632-.288.39-.575.714-.847.973a6.835 6.835 0 0 1-.384.325 7.616 7.616 0 0 0-.303.227 7.815 7.815 0 0 1-.288.178s-.016-.13 0-.34c0-.212-.016-.52.016-.892.016-.195.032-.39.064-.6.016-.211.048-.438.08-.665.048-.227.096-.47.16-.714.047-.243.127-.486.207-.745.096-.244.192-.487.304-.73a8.37 8.37 0 0 1 .304-.665c.223-.422.479-.794.687-1.102.208-.325.4-.584.527-.746.144-.179.24-.276.24-.276s.032.13.096.373c.032.13.064.276.096.438.016.08.032.178.048.26 0 .096.016.194.032.307.016.211.032.438.032.665 0 .243 0 .486-.016.746-.032.26-.064.535-.128.794-.016.13-.048.276-.08.406s-.08.26-.128.405zm-5.434.503c.144.194.272.373.432.551.144.178.303.34.447.503.304.308.623.583.895.81.144.114.272.211.384.308.112.081.223.163.303.211.176.13.272.195.272.195s.016-.13.032-.34c0-.212-.016-.52-.064-.892-.016-.179-.048-.373-.08-.584a6.88 6.88 0 0 0-.192-.633c-.08-.21-.16-.437-.255-.648a5.118 5.118 0 0 0-.384-.632 4.154 4.154 0 0 0-.463-.568 3.326 3.326 0 0 0-.512-.454 5.073 5.073 0 0 0-1.007-.632 4.945 4.945 0 0 0-.767-.325c-.192-.065-.32-.08-.32-.08l.048.291c.032.081.048.195.08.325.032.064.048.13.064.194.016.065.032.146.064.227.032.146.096.308.16.487.064.162.144.34.224.535.08.178.176.372.288.567.047.097.111.195.175.292.064.097.112.195.176.292zm5.306 5.902a3.979 3.979 0 0 1-.48.648c-.16.211-.335.39-.51.535-.368.325-.704.584-1.024.762-.32.179-.607.309-.799.39-.208.08-.32.113-.32.113s.017-.13.065-.34a2.59 2.59 0 0 1 .096-.373c.015-.081.032-.162.063-.244.016-.08.032-.162.064-.243.048-.178.096-.373.176-.567.064-.211.16-.422.24-.633.08-.21.176-.437.288-.664.064-.114.111-.227.175-.34l.192-.341c.144-.227.288-.438.432-.649.16-.195.32-.39.463-.567.304-.357.623-.681.895-.94.144-.13.272-.244.384-.341.112-.098.223-.195.303-.26.176-.146.272-.21.272-.21s.016.145.032.389c0 .243-.016.6-.064 1.005-.016.21-.048.438-.096.665-.048.227-.112.47-.176.73-.08.242-.175.486-.271.745-.128.243-.256.486-.4.73zm-5.402-.714c.096.211.192.422.304.633.112.194.224.405.335.583.224.373.48.714.688.99.224.291.415.518.56.68l.239.244s.032-.13.096-.34c.016-.098.048-.228.08-.374 0-.08.016-.146.032-.227.016-.097.016-.178.032-.275 0-.179.015-.373.015-.584 0-.21 0-.422-.031-.665-.032-.227-.08-.454-.128-.697l-.096-.34a1.386 1.386 0 0 0-.144-.357 4.298 4.298 0 0 0-.336-.665 3.368 3.368 0 0 0-.383-.551 5.89 5.89 0 0 0-.847-.843 3.006 3.006 0 0 0-.384-.292c-.112-.082-.223-.146-.303-.195-.176-.114-.288-.162-.288-.162s-.016.113-.016.308c.016.178 0 .454.032.762.016.162.032.34.064.519.016.178.048.373.096.567.032.211.096.406.16.633.063.21.127.421.223.648zm3.916 6.956c-.4.39-.831.697-1.23.94a6.634 6.634 0 0 1-1.168.487c-.351.114-.639.178-.846.21-.224.033-.336.033-.336.033s.032-.113.128-.308c.096-.21.224-.486.4-.81.191-.309.383-.681.654-1.07.064-.082.144-.179.224-.276.064-.098.144-.195.208-.292.16-.195.336-.39.512-.584.095-.097.191-.178.287-.276.096-.08.192-.178.272-.259.192-.162.383-.308.575-.454.384-.276.751-.519 1.071-.713.32-.195.607-.34.8-.438.207-.097.319-.146.319-.146s-.064.567-.32 1.362c-.144.39-.336.843-.575 1.297a8.07 8.07 0 0 1-.975 1.297zm-5.114-1.93c.08.455.207.909.367 1.33.128.422.288.795.448 1.135.16.325.303.584.4.779.111.178.175.291.175.291s.064-.113.16-.308c.096-.194.208-.47.336-.827.111-.34.191-.762.255-1.216 0-.113.016-.227.032-.34v-.357c-.016-.243-.032-.502-.08-.746-.016-.13-.048-.243-.08-.373a2.802 2.802 0 0 0-.112-.34 7.783 7.783 0 0 0-.255-.649 5.419 5.419 0 0 0-.656-1.005 4.479 4.479 0 0 0-.559-.616c-.144-.146-.24-.227-.24-.227s-.144.421-.207 1.054a4.554 4.554 0 0 0-.08 1.086c-.016.405.016.86.096 1.33zm2.317 7.67c-.128.065-.24.146-.352.21a.586.586 0 0 0-.175.082 1.542 1.542 0 0 1-.176.081c-.24.097-.48.195-.703.26a5.34 5.34 0 0 1-.656.145c-.208.049-.4.065-.591.081a7.807 7.807 0 0 1-.879 0c-.208-.016-.32-.032-.32-.032s.064-.114.192-.292c.064-.08.144-.178.24-.292.096-.13.208-.243.32-.389.24-.276.527-.584.879-.892.16-.162.351-.308.543-.47.192-.146.4-.292.623-.438.208-.146.432-.275.655-.405.224-.113.448-.21.656-.308.431-.195.847-.34 1.198-.454.096-.032.176-.049.272-.081.08-.016.144-.049.224-.065.144-.032.272-.065.383-.097.208-.049.336-.065.336-.065s-.048.13-.144.357a8.415 8.415 0 0 1-.463.891c-.112.179-.24.357-.368.552a5.28 5.28 0 0 1-.48.567c-.175.195-.351.39-.559.568-.208.162-.431.324-.655.486zm-4.57-3.048c-.017.13-.017.243-.017.356.016.13.016.244.016.357 0 .227.032.454.048.681l.096.633c.048.194.08.389.112.567.08.357.16.649.224.843.063.211.111.34.111.34s.096-.097.224-.259c.064-.097.144-.194.224-.308.096-.13.192-.26.272-.421.175-.325.367-.698.511-1.135.08-.227.128-.454.176-.681.048-.244.096-.487.096-.746 0-.26 0-.503-.032-.746a5.034 5.034 0 0 0-.112-.681 6.817 6.817 0 0 0-.416-1.119c-.032-.08-.064-.162-.111-.227-.032-.08-.08-.146-.112-.21-.064-.114-.144-.228-.192-.309-.128-.178-.192-.275-.192-.275s-.064.097-.144.275c-.064.162-.191.406-.287.698a3.682 3.682 0 0 0-.16.502c-.064.162-.112.357-.16.551-.048.195-.08.406-.112.633-.032.21-.064.438-.064.68zm.606 8.01a4.943 4.943 0 0 1-.767.21c-.127.017-.255.05-.367.065-.128.017-.256.017-.368.033a7.532 7.532 0 0 1-1.262-.065 5.438 5.438 0 0 1-.864-.195 4.316 4.316 0 0 1-.303-.113s.08-.081.24-.227c.175-.13.4-.325.703-.551.144-.098.303-.211.48-.325.175-.113.367-.227.559-.34.191-.114.415-.227.639-.325.224-.113.447-.21.703-.308.24-.097.496-.162.72-.227.239-.064.479-.13.718-.162.224-.048.448-.08.656-.113.224-.017.415-.049.607-.065.368-.033.687-.033.895-.033.224 0 .352.017.352.017s-.08.113-.224.308c-.064.097-.16.21-.272.34-.096.13-.224.292-.367.422-.144.146-.304.308-.48.454l-.288.243a.88.88 0 0 0-.143.114c-.048.032-.096.064-.16.097a9.144 9.144 0 0 1-.655.421c-.128.049-.24.114-.368.179l-.384.146zm-3.803-3.99c-.064.228-.112.455-.16.682l-.048.34a2.45 2.45 0 0 0-.032.34c-.048.439-.064.86-.064 1.217.016.373.016.665.048.876.016.227.032.34.032.34s.096-.065.272-.194c.16-.13.383-.341.639-.6.112-.13.24-.276.368-.438.127-.179.255-.357.367-.552.112-.194.224-.405.336-.616.08-.227.16-.47.224-.713.063-.243.127-.486.143-.73.016-.227.032-.47.016-.68 0-.228-.016-.438-.032-.65-.032-.194-.08-.388-.111-.55a5.13 5.13 0 0 0-.256-.828c-.08-.194-.128-.291-.128-.291s-.08.08-.192.21c-.048.081-.128.179-.192.276a6.75 6.75 0 0 0-.24.357c-.095.13-.175.275-.271.438-.048.08-.096.162-.128.259-.032.032-.048.081-.064.13-.032.032-.048.08-.064.13a4.903 4.903 0 0 0-.255.583c-.048.097-.08.21-.112.324-.032.114-.064.211-.096.34zm-1.119 7.946c-.272.032-.543.032-.8.032a5.378 5.378 0 0 1-.734-.08 2.454 2.454 0 0 1-.336-.066 1.839 1.839 0 0 1-.32-.08c-.207-.066-.383-.13-.559-.195-.336-.13-.607-.276-.799-.373-.08-.065-.16-.097-.208-.13-.048-.032-.064-.065-.064-.065s.096-.048.288-.162c.192-.097.463-.227.783-.373.176-.065.352-.146.543-.21.192-.082.4-.146.624-.211.064-.017.112-.033.176-.049.047-.016.111-.032.16-.049.111-.032.24-.065.351-.08.24-.066.495-.098.751-.13.512-.081 1.023-.081 1.486-.065.48.016.896.065 1.279.113.368.049.671.13.895.179.208.048.32.08.32.08s-.016.033-.064.066c-.048.048-.112.13-.208.194a9.544 9.544 0 0 1-.8.6c-.079.049-.175.114-.27.178-.097.049-.193.098-.288.163-.208.097-.432.21-.672.308-.112.048-.24.097-.351.13-.128.048-.256.08-.384.113a6.35 6.35 0 0 1-.799.162zm-2.86-4.75c-.113.21-.209.42-.304.631-.08.211-.16.422-.224.65-.032.096-.064.21-.096.307s-.064.195-.08.292c-.064.195-.096.39-.144.568-.064.356-.112.664-.144.875-.016.114-.032.195-.032.243 0 .065-.016.098-.016.098s.032-.017.096-.033c.048-.016.128-.065.224-.113.176-.098.447-.244.751-.438.144-.097.304-.227.448-.357.16-.13.32-.276.48-.438.047-.032.08-.08.127-.113.032-.049.064-.097.112-.146.064-.081.144-.178.208-.276.144-.194.271-.405.4-.632.223-.454.367-.924.447-1.346.096-.438.112-.86.112-1.216-.016-.34-.032-.632-.08-.843-.032-.21-.064-.324-.064-.324l-.048.048c-.048.017-.096.081-.176.13-.144.114-.352.276-.56.503-.447.454-1.006 1.07-1.438 1.93zm-2.798 7.49a5.15 5.15 0 0 1-1.486-.39 5.406 5.406 0 0 1-1.103-.599 6.736 6.736 0 0 1-.703-.567 2.653 2.653 0 0 1-.24-.244l.32-.08c.112-.033.24-.066.384-.082.143-.032.303-.08.479-.113s.368-.065.575-.081c.096-.017.208-.017.32-.033.112-.016.208-.016.336-.032.447-.033.943-.016 1.454.016.272.032.511.065.767.13.128.016.24.048.352.065.128.032.24.064.351.08.448.13.863.276 1.215.422.352.13.64.26.831.357.208.097.32.162.32.162s-.128.065-.336.195c-.112.048-.24.113-.384.194-.16.065-.335.13-.527.195a5.792 5.792 0 0 1-1.342.357c-.24.048-.496.064-.768.08-.064 0-.127.017-.207.017-.064 0-.128-.016-.192-.016-.144 0-.272-.017-.416-.033zm-1.774-5.286a7.32 7.32 0 0 0-.415.568c-.128.194-.256.373-.368.567-.224.373-.4.746-.56 1.07-.143.325-.255.617-.335.811-.08.21-.112.324-.112.324s.128-.016.336-.064c.096-.017.224-.05.368-.081.144-.05.287-.114.463-.179.16-.065.336-.146.528-.227.08-.048.175-.097.271-.146a7.38 7.38 0 0 1 .272-.178 4.958 4.958 0 0 0 1.502-1.557c.064-.097.112-.194.16-.308.064-.097.112-.21.144-.308.176-.405.288-.794.367-1.135.064-.357.096-.648.112-.86.016-.21 0-.34 0-.34l-.255.13c-.08.049-.176.097-.288.162-.112.065-.24.13-.368.21-.271.163-.559.374-.879.617-.16.13-.32.276-.463.438l-.128.113-.112.114c-.08.08-.16.178-.24.26zm-4.33 6.68a5.795 5.795 0 0 1-2.318-1.556 6.767 6.767 0 0 1-.56-.697c-.111-.179-.175-.292-.175-.292s.48-.065 1.198 0c.368.016.783.049 1.231.13.224.048.463.08.703.13.24.064.48.13.72.226.127.049.255.081.367.13a8.245 8.245 0 0 1 1.007.47c.112.049.208.114.303.162.096.065.192.114.288.179.176.097.352.21.512.324.303.21.559.405.735.551.176.146.255.227.255.227s-.032.017-.095.033c-.048.016-.144.048-.256.08-.24.05-.575.13-.975.18a4.302 4.302 0 0 1-.655.048c-.24.016-.48.016-.736 0a6.727 6.727 0 0 1-.767-.114 4.68 4.68 0 0 1-.783-.21zM19.087.86c-.24.13-.463.292-.655.454a2.29 2.29 0 0 0-.288.244c-.095.08-.175.178-.271.259-.32.357-.575.697-.783 1.005-.192.325-.32.6-.416.811l-.128.308s.128 0 .336-.049c.112-.016.224-.032.367-.064.144-.033.32-.065.496-.114.336-.081.751-.21 1.183-.357.207-.08.431-.178.655-.275a.742.742 0 0 1 .16-.081c.064-.033.112-.065.175-.081.112-.065.224-.114.336-.179.24-.13.448-.275.655-.421.208-.146.4-.292.592-.438.367-.292.687-.6.959-.876.255-.26.463-.502.607-.665a2.68 2.68 0 0 0 .224-.275s-.128-.016-.368-.049c-.128 0-.272-.016-.431-.016-.176 0-.352.016-.56.016-.207.016-.431.049-.655.081-.112.017-.224.033-.352.065-.111.016-.24.049-.367.081-.48.146-.991.324-1.47.616zm-5.833 1.946c-.272.486-.463.99-.591 1.46a5.669 5.669 0 0 0-.192 1.28 5.46 5.46 0 0 0 0 .892c.032.21.048.34.048.34s.032-.016.08-.048c.032-.033.096-.097.192-.162.16-.13.4-.325.655-.584a10.231 10.231 0 0 0 1.726-2.124c.128-.243.256-.454.367-.681.112-.227.208-.454.304-.681.048-.113.08-.227.128-.34.032-.098.08-.211.112-.309.064-.21.128-.405.176-.583.111-.373.175-.698.223-.908.016-.114.032-.211.048-.26 0-.065.016-.097.016-.097s-.032.016-.096.032c-.064.033-.143.065-.255.13-.224.114-.512.276-.863.487-.176.113-.352.259-.528.405a7.489 7.489 0 0 0-.56.486c-.031.049-.079.081-.127.13a1.043 1.043 0 0 0-.128.146c-.096.097-.176.21-.255.308a6.534 6.534 0 0 0-.48.681zm3.037 4.637a7.36 7.36 0 0 1-1.343-.032 10.635 10.635 0 0 1-1.182-.195c-.336-.065-.64-.162-.832-.21a3.502 3.502 0 0 1-.32-.114s.033-.016.065-.065c.048-.032.096-.097.175-.162.176-.13.416-.324.72-.519.591-.389 1.486-.778 2.46-.843.257-.032.496 0 .736.016.224.016.448.065.655.114.112.016.208.048.304.08.112.033.208.066.304.098.175.065.351.146.511.227.304.146.56.292.72.405.08.065.16.114.191.146.048.033.08.05.08.05s-.096.048-.256.145c-.16.081-.4.21-.687.308-.144.065-.304.13-.463.178a4.622 4.622 0 0 1-.56.163c-.048.016-.096.032-.144.032l-.143.049a2.236 2.236 0 0 0-.32.064 7.88 7.88 0 0 1-.671.065zm-7.8-.486c-.08.276-.16.535-.191.794-.048.26-.064.52-.08.762a4.841 4.841 0 0 0 .08 1.281c.064.373.143.665.207.876.064.21.112.324.112.324s.08-.097.208-.26c.08-.08.144-.194.24-.307.08-.13.176-.26.287-.422.096-.146.208-.308.32-.486.048-.098.096-.195.16-.292.016-.049.048-.097.064-.146l.096-.146c.112-.21.208-.422.303-.665.048-.113.096-.227.144-.356.048-.114.096-.244.144-.357.08-.26.144-.503.208-.762.032-.13.048-.243.08-.373.016-.114.048-.243.064-.357.08-.47.127-.908.143-1.297.017-.39.033-.697.033-.924-.017-.227-.017-.357-.017-.357s-.127.081-.32.227a5.133 5.133 0 0 0-.718.681c-.144.146-.288.308-.448.486-.144.195-.288.406-.431.617-.128.21-.272.437-.384.68-.112.26-.224.52-.304.779zm3.948 3.843a10.036 10.036 0 0 1-1.326.275l-.624.049c-.208 0-.383.016-.56.016a7.753 7.753 0 0 1-1.199-.049c.001 0 .065-.113.193-.275a6.481 6.481 0 0 1 .575-.681c.128-.114.272-.26.432-.39.08-.064.16-.129.256-.194a.887.887 0 0 1 .127-.097c.048-.033.096-.065.128-.097.192-.114.4-.227.607-.325.112-.065.224-.113.336-.162.112-.032.24-.08.352-.113.24-.065.48-.114.703-.146a2.35 2.35 0 0 1 .336-.033h.335c.448 0 .847.065 1.167.13.335.081.623.178.815.243.192.081.288.13.288.13s-.064.081-.208.195c-.144.113-.352.291-.607.47-.128.097-.272.178-.432.275a6.305 6.305 0 0 1-.48.292c-.175.081-.383.179-.575.26a7.44 7.44 0 0 1-.639.227zm-7.72 1.28a4.611 4.611 0 0 0-.015.811c0 .26.032.52.08.762.095.47.223.892.351 1.233.032.097.064.178.096.243.048.081.08.162.112.227.064.13.128.243.192.34.096.195.176.292.176.292s.063-.113.143-.308c.096-.194.224-.47.352-.81.08-.179.144-.373.208-.568.064-.195.128-.405.192-.632.063-.227.111-.47.16-.714.047-.243.095-.502.127-.778 0-.13.016-.26.016-.39.016-.129.016-.259.016-.388.016-.26.016-.503 0-.746a9.394 9.394 0 0 0-.064-.697 6.788 6.788 0 0 0-.08-.6c-.048-.373-.128-.698-.175-.908-.048-.227-.096-.357-.096-.357s-.096.113-.24.308c-.08.081-.176.21-.272.34-.096.146-.208.292-.303.47a8.64 8.64 0 0 0-.608 1.282c-.096.243-.16.502-.223.762-.064.26-.128.535-.144.827zm4.683 2.854a5.552 5.552 0 0 1-.623.308c-.208.098-.415.179-.623.26-.4.146-.8.26-1.135.34a12.72 12.72 0 0 0-.48.098 13.122 13.122 0 0 1-.703.114s.048-.114.128-.325c.08-.195.24-.47.416-.778.112-.146.208-.308.335-.47.128-.163.272-.341.432-.503.16-.162.32-.325.511-.47.192-.146.4-.276.608-.406.112-.065.223-.113.335-.162.048-.032.096-.049.16-.081.048-.016.112-.033.16-.065.224-.081.447-.13.655-.178.208-.049.416-.081.607-.114.208-.016.4-.016.56-.016.351 0 .64.032.83.065.209.016.32.048.32.048s-.047.098-.16.244c-.063.08-.127.162-.207.26-.08.096-.192.21-.288.323a5.993 5.993 0 0 1-.783.762c-.144.13-.303.26-.48.373-.191.13-.383.26-.575.373zm-7.271 3c.016.13.048.276.064.405l.095.39c.08.259.16.486.256.713.176.438.4.827.607 1.135.208.308.416.535.56.697.144.162.224.243.224.243s.16-.486.255-1.216c.064-.357.112-.794.128-1.265a9.815 9.815 0 0 0-.048-1.507 8.79 8.79 0 0 0-.287-1.492 12.172 12.172 0 0 0-.416-1.232 21.49 21.49 0 0 0-.368-.86c-.096-.194-.16-.308-.16-.308s-.08.114-.191.34c-.096.228-.24.552-.368.941-.144.39-.256.86-.32 1.378-.031.13-.047.26-.047.39-.016.13-.016.275-.016.405 0 .276 0 .551.032.843zm5.194 1.719c-.096.08-.192.146-.272.227a3.082 3.082 0 0 1-.272.21 5.654 5.654 0 0 1-.543.39c-.384.227-.735.437-1.039.583-.32.162-.591.292-.799.373-.192.065-.304.114-.304.114s.064-.503.288-1.2c.128-.34.304-.73.527-1.119a4.873 4.873 0 0 1 2.078-1.88c.4-.195.783-.309 1.119-.39.335-.081.607-.113.83-.13.193-.016.32-.016.32-.016l-.127.26a4.449 4.449 0 0 1-.336.697c-.176.26-.352.584-.591.908-.064.08-.128.162-.208.243-.064.081-.128.162-.208.243a4.345 4.345 0 0 1-.463.487zM.885 24.224c.096.26.208.503.336.746.111.227.24.438.383.632.288.39.576.714.847.973l.368.325c.128.08.224.162.32.227.175.113.287.178.287.178v-.34c0-.212.016-.52-.016-.892-.016-.195-.032-.39-.064-.6a5.13 5.13 0 0 0-.096-.665 6.276 6.276 0 0 0-.144-.714c-.063-.243-.127-.486-.223-.745-.08-.244-.192-.487-.288-.73a8.47 8.47 0 0 0-.32-.665 12.207 12.207 0 0 0-.67-1.102 6.369 6.369 0 0 0-.544-.746l-.224-.276s-.048.13-.096.373c-.032.13-.064.276-.096.438-.016.08-.032.178-.048.26-.016.096-.016.194-.032.307-.016.211-.032.438-.032.665-.016.243-.016.486.016.746s.064.535.112.794c.032.13.064.276.096.406s.08.26.128.405zm5.418.503a7.04 7.04 0 0 1-.416.551c-.16.178-.32.34-.463.503-.304.308-.607.583-.88.81-.143.114-.27.211-.399.308-.112.081-.207.163-.303.211-.16.13-.272.195-.272.195s-.016-.13-.016-.34c-.016-.212 0-.52.048-.892.032-.179.048-.373.096-.584.048-.195.112-.405.176-.633.08-.21.16-.437.271-.648.112-.21.24-.438.384-.632.144-.211.288-.406.463-.568.16-.178.336-.324.512-.454.335-.276.671-.486.99-.632.32-.163.592-.26.784-.325.192-.065.303-.08.303-.08l-.048.291c-.015.081-.047.195-.08.325l-.047.194c-.016.065-.048.146-.064.227-.048.146-.096.308-.16.487-.064.162-.144.34-.224.535-.08.178-.176.372-.288.567a2.829 2.829 0 0 1-.175.292c-.064.097-.112.195-.192.292zm-5.29 5.902c.144.243.304.454.463.648.176.211.352.39.528.535.351.325.703.584 1.023.762.32.179.59.309.799.39.191.08.303.113.303.113s-.016-.13-.048-.34a4.05 4.05 0 0 1-.096-.373c-.015-.081-.047-.162-.063-.244-.016-.08-.048-.162-.064-.243-.048-.178-.112-.373-.176-.567-.064-.211-.16-.422-.24-.633a7.636 7.636 0 0 0-.288-.664l-.191-.34-.192-.341a5.69 5.69 0 0 0-.432-.649c-.143-.195-.32-.39-.463-.567a12.789 12.789 0 0 0-.88-.94 6.415 6.415 0 0 0-.399-.341c-.112-.098-.207-.195-.303-.26-.16-.146-.272-.21-.272-.21s-.016.145-.016.389c-.016.243 0 .6.048 1.005.032.21.048.438.096.665a8.357 8.357 0 0 0 .463 1.475c.112.243.24.486.4.73zm5.402-.714c-.096.211-.208.422-.32.633a6.791 6.791 0 0 1-.32.583c-.24.373-.495.714-.703.99-.207.291-.415.518-.56.68-.143.146-.223.244-.223.244s-.048-.13-.096-.34c-.032-.098-.048-.228-.08-.374-.016-.08-.032-.146-.032-.227-.016-.097-.016-.178-.032-.275-.016-.179-.016-.373-.016-.584 0-.21 0-.422.032-.665.032-.227.064-.454.128-.697a1.36 1.36 0 0 1 .096-.34c.032-.13.08-.244.128-.357.096-.244.208-.454.336-.665.127-.195.255-.39.4-.551.287-.34.575-.633.846-.843.128-.114.256-.211.368-.292.128-.082.224-.146.32-.195.175-.114.287-.162.287-.162v.308c0 .178.016.454-.016.762-.016.162-.048.34-.064.519-.032.178-.064.373-.096.567-.048.211-.096.406-.175.633-.048.21-.128.421-.208.648zm-3.916 6.956c.4.39.815.697 1.215.94.431.228.83.374 1.182.487.336.114.64.178.848.21.207.033.335.033.335.033s-.048-.113-.144-.308a6.937 6.937 0 0 0-.383-.81c-.192-.309-.4-.681-.672-1.07-.063-.082-.127-.179-.207-.276-.08-.098-.144-.195-.224-.292a5.558 5.558 0 0 0-.511-.584c-.08-.097-.192-.178-.272-.276-.096-.08-.192-.178-.288-.259-.192-.162-.383-.308-.56-.454-.399-.276-.75-.519-1.07-.713a11.133 11.133 0 0 0-1.135-.584s.08.567.336 1.362c.144.39.336.843.575 1.297.256.438.592.892.975 1.297zm5.098-1.93a6.262 6.262 0 0 1-.351 1.33c-.144.422-.304.795-.448 1.135-.16.325-.32.584-.415.779a3.143 3.143 0 0 1-.176.291s-.064-.113-.16-.308c-.08-.194-.208-.47-.32-.827-.127-.34-.207-.762-.255-1.216-.016-.113-.032-.227-.032-.34-.016-.114 0-.243 0-.357.016-.243.032-.502.08-.746a3.03 3.03 0 0 1 .064-.373c.032-.113.08-.227.112-.34.08-.227.175-.438.271-.649.192-.389.432-.73.64-1.005.223-.276.415-.486.575-.616.144-.146.24-.227.24-.227s.143.421.207 1.054c.048.308.08.68.08 1.086.016.405-.016.86-.112 1.33zm-2.301 7.67c.112.065.24.146.352.21.064.017.112.05.175.082.064.032.112.065.176.081.24.097.48.195.703.26.224.064.432.113.64.145.207.049.415.065.591.081.368.017.671.017.879 0 .224-.016.336-.032.336-.032s-.064-.114-.192-.292a11.604 11.604 0 0 0-.24-.292c-.096-.13-.208-.243-.32-.389a11.45 11.45 0 0 0-.878-.892c-.176-.162-.352-.308-.544-.47-.192-.146-.415-.292-.623-.438-.224-.146-.448-.275-.671-.405-.208-.113-.448-.21-.656-.308a9.312 9.312 0 0 0-1.198-.454c-.08-.032-.176-.049-.256-.081-.08-.016-.16-.049-.224-.065a3.258 3.258 0 0 1-.383-.097c-.224-.049-.352-.065-.352-.065s.048.13.144.357c.096.227.272.535.48.891.111.179.223.357.367.552.144.194.304.389.48.567.16.195.351.39.559.568.208.162.415.324.655.486zm4.57-3.048v.713c-.015.227-.031.454-.063.681a4.32 4.32 0 0 1-.096.633c-.032.194-.064.389-.112.567a9.524 9.524 0 0 1-.335 1.184s-.08-.098-.208-.26a3.315 3.315 0 0 0-.24-.308c-.08-.13-.176-.26-.256-.421-.175-.325-.383-.698-.527-1.135-.064-.227-.128-.454-.176-.681a3.806 3.806 0 0 1-.08-.746c-.016-.26 0-.503.016-.746.032-.227.064-.454.128-.681.112-.422.256-.81.4-1.119.048-.08.08-.162.111-.227.048-.08.08-.146.112-.21.08-.114.144-.228.208-.309.112-.178.192-.275.192-.275s.048.097.128.275c.08.162.192.406.303.698.048.145.112.324.16.502.048.162.112.357.16.551.032.195.08.406.112.633.032.21.048.438.064.68zm-.606 8.01a4.5 4.5 0 0 0 .767.21c.128.017.24.05.367.065.128.017.24.017.368.033.463.016.895-.017 1.246-.065.368-.049.672-.13.864-.195.207-.065.32-.113.32-.113s-.097-.081-.257-.227c-.16-.13-.4-.325-.687-.551-.144-.098-.303-.211-.495-.325a8.062 8.062 0 0 0-.544-.34 7.9 7.9 0 0 0-.639-.325 9.216 9.216 0 0 0-.703-.308c-.24-.097-.496-.162-.735-.227-.24-.064-.48-.13-.704-.162a9.673 9.673 0 0 0-.67-.113c-.209-.017-.4-.049-.592-.065-.368-.033-.687-.033-.911-.033-.224 0-.352.017-.352.017s.08.113.224.308c.08.097.176.21.272.34.112.13.224.292.383.422.144.146.304.308.48.454.096.08.176.162.271.243a.88.88 0 0 1 .144.114c.064.032.112.064.16.097.208.146.432.292.671.421.112.049.24.114.368.179.112.048.256.097.384.146zm3.803-3.99c.064.228.112.455.144.682.032.113.048.227.048.34l.048.34c.048.439.064.86.048 1.217a11.523 11.523 0 0 1-.064 1.216s-.112-.065-.272-.194c-.176-.13-.4-.341-.639-.6a5.288 5.288 0 0 1-.383-.438 6.4 6.4 0 0 1-.352-.552 4.59 4.59 0 0 1-.336-.616 5.327 5.327 0 0 1-.24-.713 3.877 3.877 0 0 1-.127-.73c-.032-.227-.032-.47-.032-.68 0-.228.032-.438.048-.65.032-.194.064-.388.111-.55a5.13 5.13 0 0 1 .256-.828c.064-.194.112-.291.112-.291s.08.08.192.21c.064.081.128.179.208.276.064.114.143.227.24.357.08.13.175.275.271.438.032.08.08.162.128.259.016.032.032.081.064.13.016.032.048.08.064.13.096.178.176.372.255.583.032.097.064.21.112.324.032.114.064.211.096.34zm1.119 7.946c.272.032.543.032.8.032.255-.016.495-.032.734-.08.112-.017.224-.033.336-.066.096-.016.208-.048.303-.08.208-.066.4-.13.576-.195.335-.13.607-.276.783-.373.096-.065.16-.097.208-.13.048-.032.08-.065.08-.065s-.112-.048-.288-.162a15.207 15.207 0 0 0-.8-.373c-.175-.065-.35-.146-.543-.21a5.638 5.638 0 0 0-.623-.211c-.048-.017-.112-.033-.16-.049-.063-.016-.111-.032-.175-.049-.112-.032-.224-.065-.352-.08a5.173 5.173 0 0 0-.751-.13c-.512-.081-1.007-.081-1.487-.065a13.08 13.08 0 0 0-1.262.113c-.368.049-.687.13-.895.179-.208.048-.336.08-.336.08s.032.033.08.066c.048.048.112.13.208.194.176.162.447.373.8.6.079.049.175.114.255.178.096.049.208.098.303.163.208.097.432.21.656.308.128.048.24.097.367.13.128.048.256.08.384.113.256.065.527.13.799.162zm2.86-4.75c.097.21.208.42.288.631.096.211.16.422.24.65.032.096.064.21.096.307.016.097.048.195.08.292.048.195.096.39.128.568.08.356.128.664.16.875.016.114.016.195.032.243v.098s-.032-.017-.08-.033-.128-.065-.224-.113a8.97 8.97 0 0 1-.751-.438c-.16-.097-.304-.227-.464-.357-.16-.13-.32-.276-.48-.438-.031-.032-.063-.08-.111-.113-.032-.049-.08-.097-.112-.146-.08-.081-.144-.178-.224-.276-.127-.194-.271-.405-.383-.632a6.13 6.13 0 0 1-.464-1.346 6.762 6.762 0 0 1-.032-2.06c.032-.21.064-.323.064-.323s.032.016.064.048c.032.017.096.081.16.13.16.114.352.276.575.503.448.454 1.007 1.07 1.439 1.93zm2.798 7.49a6.07 6.07 0 0 0 .783-.146c.24-.065.48-.146.687-.243.447-.178.815-.39 1.119-.6.303-.21.543-.422.687-.567.16-.146.24-.244.24-.244s-.112-.032-.32-.08a1.792 1.792 0 0 0-.368-.082c-.143-.032-.303-.08-.48-.113a5.482 5.482 0 0 0-.574-.081c-.112-.017-.208-.017-.32-.033-.112-.016-.224-.016-.336-.032a11.227 11.227 0 0 0-1.47.016c-.256.032-.511.065-.751.13-.128.016-.256.048-.368.065-.112.032-.224.064-.351.08-.448.13-.863.276-1.215.422-.336.13-.623.26-.831.357-.192.097-.304.162-.304.162l.336.195c.096.048.24.113.383.194.144.065.32.13.512.195.4.146.847.292 1.342.357.256.048.512.064.784.08.063 0 .127.017.191.017s.144-.016.208-.016c.128 0 .272-.017.416-.033zm1.758-5.286c.16.179.287.373.431.568.128.194.24.373.352.567.224.373.415.746.56 1.07.159.325.27.617.335.811.08.21.112.324.112.324s-.112-.016-.32-.064c-.112-.017-.224-.05-.368-.081a8.733 8.733 0 0 1-.463-.179c-.16-.065-.336-.146-.527-.227a4.185 4.185 0 0 1-.272-.146 2.776 2.776 0 0 0-.288-.178c-.367-.26-.751-.568-1.07-.957a5.014 5.014 0 0 1-.416-.6c-.064-.097-.128-.194-.176-.308-.048-.097-.096-.21-.144-.308a5.363 5.363 0 0 1-.351-1.135c-.08-.357-.096-.648-.112-.86-.016-.21-.016-.34-.016-.34s.096.049.271.13c.08.049.176.097.288.162.112.065.24.13.368.21.271.163.559.374.879.617.143.13.303.276.463.438l.112.113.128.114c.08.08.144.178.224.26zm4.347 6.68a5.912 5.912 0 0 0 2.317-1.556c.24-.276.432-.519.543-.697.128-.179.192-.292.192-.292s-.495-.065-1.214 0a9.643 9.643 0 0 0-1.231.13c-.224.048-.447.08-.687.13-.24.064-.48.13-.735.226-.128.049-.24.081-.368.13a7.941 7.941 0 0 1-.352.146c-.223.097-.431.21-.655.324-.096.049-.192.114-.303.162-.096.065-.192.114-.272.179-.192.097-.352.21-.512.324-.32.21-.559.405-.735.551-.176.146-.271.227-.271.227s.032.017.095.033c.064.016.16.048.272.08.24.05.576.13.975.18.192.032.416.048.655.048.224.016.464.016.72 0 .255-.016.51-.065.783-.114a5.13 5.13 0 0 0 .783-.21z"/>
    <path fill="#fff" fill-rule="evenodd" d="M37.35 25.365a1.04 1.04 0 1 1 0 2.081 1.036 1.036 0 0 1-1.025-1.04c0-.568.457-1.041 1.025-1.041zM27.653 38.23c-.93-7.647-2.46-13.718-4.573-18.227l-1.924.126c3.185 4.825 5.346 10.864 6.48 18.101h.017zM22.465 18.79a20.448 20.448 0 0 0-1.845-2.948c6.213.662 11.873 1.293 16.95 1.892-3.689.315-7.726.457-12.093.426.142.3.283.599.41.899 1.718.126 3.626.252 5.708.394l-5.393.347c1.924 4.793 2.68 10.974 2.255 18.543.457.047.93.063 1.403.063 7.506 0 13.592-6.087 13.592-13.592 0-7.521-6.086-13.608-13.592-13.608-.394 0-.773.016-1.167.047A16.439 16.439 0 0 1 31.5 11C40.062 11 47 17.938 47 26.5 47 35.062 40.062 42 31.5 42 22.938 42 16 35.062 16 26.5c0-1.12.126-2.207.347-3.264-.063.52-.095 1.04-.095 1.577 0 6.622 4.747 12.141 11.022 13.355C24.294 29.26 20.541 22.574 16 18.111c1.45.221 3.61.442 6.465.678zm17.897-1.75l-2.854 4.778-3.8 2.523-1.845 9.87 4.304-6.67a1.638 1.638 0 0 1 1.183-2.774c.914 0 1.656.725 1.656 1.64a1.652 1.652 0 0 1-2.287 1.513l-4.4 6.844 8.295-5.803 1.12-4.873.993-1.497a13.056 13.056 0 0 0-2.365-5.55z" clip-rule="evenodd"/>
    <path fill="#fff" d="M49 26.492C49 36.718 40.73 45 30.5 45 20.286 45 12 36.718 12 26.492 12 16.282 20.286 8 30.5 8 40.73 8 49 16.282 49 26.492zm-.542 0c0-9.907-8.03-17.95-17.958-17.95-9.911 0-17.958 8.043-17.958 17.95 0 9.923 8.047 17.95 17.958 17.95 9.927 0 17.958-8.027 17.958-17.95z"/>
</svg>
