<svg xmlns="http://www.w3.org/2000/svg" width="14" height="17" fill="none" viewBox="0 0 14 17">
    <path fill="#fff" d="M7 0L0 3.09v4.637c0 4.289 2.987 8.3 7 9.273 4.013-.974 7-4.984 7-9.273V3.091L7 0zm0 3.09c.619 0 1.212.245 1.65.68a2.31 2.31 0 0 1 0 3.278 2.341 2.341 0 0 1-3.3 0 2.31 2.31 0 0 1 0-3.278A2.341 2.341 0 0 1 7 3.09zm3.99 9.274A7.53 7.53 0 0 1 7 15.393a7.53 7.53 0 0 1-3.99-3.03 7.841 7.841 0 0 1-.677-1.182c0-1.275 2.108-2.318 4.667-2.318 2.559 0 4.667 1.02 4.667 2.318-.187.41-.413.796-.677 1.183z"/>
</svg>
