<svg xmlns="http://www.w3.org/2000/svg" width="98" height="57" fill="none" viewBox="0 0 98 57">
    <path stroke="#2D333D" stroke-linecap="round" stroke-linejoin="round" stroke-width="2" d="M1.103 55.188C5.715 44.847 18.921 22.52 34.857 15.94c.087 1.622-.958 6.342-5.836 12.246-4.878 5.904-7.252 10.047-7.829 11.381 3.27-2.817 10.004-9.327 10.77-12.826.208.662 1.579 1.184 5.405-2.025 4.782-4.01 13.008-11.647 14.237-15.618 1.229-3.97-.841-4.856-2.632-1.863-1.79 2.994-18.195 39.614-24.845 48.748 5.711-10.654 18.749-32.883 25.21-36.577-.891.864-2.349 2.86-1.055 3.935 1.618 1.343 11.965 4.86 7.57 12.034-4.394 7.175-7.729 10.085-14.274 11.143C48.244 32.813 68.536 4.522 96.375 1"/>
</svg>
